<svg xmlns="http://www.w3.org/2000/svg" viewBox="0 0 512 512" width="100%" height="100%">
  <!-- Neo-brutalist background card with thick borders and flat offset shadow -->
  <rect x="36" y="36" width="440" height="440" rx="40" fill="#000000" />
  <rect x="24" y="24" width="440" height="440" rx="40" fill="#10B981" stroke="#000000" stroke-width="12" />
  
  <!-- Sticker styled grocery bag with solid flat offset shadow -->
  <path d="M 180 170 L 320 170 L 340 400 L 160 400 Z" fill="#000000" />
  <path d="M 168 158 L 308 158 L 328 388 L 148 388 Z" fill="#FBBF24" stroke="#000000" stroke-width="12" stroke-linejoin="round" />
  
  <!-- Bag handle -->
  <path d="M 208 158 C 208 118, 268 118, 268 158" fill="none" stroke="#000000" stroke-width="12" stroke-linecap="round" />
  
  <!-- Produce poking out of the bag -->
  <!-- Bold Red Apple -->
  <circle cx="205" cy="142" r="38" fill="#EF4444" stroke="#000000" stroke-width="10" />
  <!-- Apple Leaf -->
  <path d="M 205 104 Q 218 88 226 104" fill="#10B981" stroke="#000000" stroke-width="8" stroke-linecap="round" />
  
  <!-- Fresh Green Veggie Leafs -->
  <path d="M 270 140 L 290 85 L 310 140" fill="#F97316" stroke="#000000" stroke-width="10" stroke-linejoin="round" />
  <path d="M 290 85 L 285 55 M 290 85 L 295 50 M 290 85 L 308 60" fill="none" stroke="#22C55E" stroke-width="10" stroke-linecap="round" />
  
  <!-- High contrast big White Checkmark on the bag for completion -->
  <path d="M 200 265 L 228 295 L 285 225" fill="none" stroke="#000000" stroke-width="22" stroke-linecap="round" stroke-linejoin="round" />
  <path d="M 200 265 L 228 295 L 285 225" fill="none" stroke="#FFFFFF" stroke-width="12" stroke-linecap="round" stroke-linejoin="round" />
  
  <!-- Accent badge "B" representing BasketWise -->
  <circle cx="390" cy="110" r="36" fill="#3B82F6" stroke="#000000" stroke-width="10" />
  <text x="390" y="122" font-family="system-ui, -apple-system, sans-serif" font-weight="900" font-size="34" fill="#FFFFFF" text-anchor="middle">B</text>
</svg>
